# xmcd
#
# Track frame offsets:
# 225
# 17465
# 33740
# 50752
# 67102
# 81600
# 98632
# 116550
# 132870
# 150060
# 168307
# 185082
#
# Disc length: 2638 seconds
#
#
# Revision: 0
# Processed by: cddbd v1.5.1PL2 Copyright (c) Steve Scherf et al.
# Submitted via: FreeRIP 2.945 
#
DISCID=9e0a4b0c
DTITLE=羅時豐 - 男兒本色
DYEAR=1900
DGENRE=Pop
TTITLE0=港邊是男性傷心的所在
TTITLE1=男兒本色
TTITLE2=台北上午零時
TTITLE3=無情之夢
TTITLE4=哀愁的風雨橋
TTITLE5=思戀
TTITLE6=今夜我要醉
TTITLE7=再會！夜都市
TTITLE8=離別之夜
TTITLE9=風雨的人生路
TTITLE10=飄浪的人生
TTITLE11=姿三四郎
EXTD=
EXTT0=
EXTT1=
EXTT2=
EXTT3=
EXTT4=
EXTT5=
EXTT6=
EXTT7=
EXTT8=
EXTT9=
EXTT10=
EXTT11=
PLAYORDER=
